<mxfile host="app.diagrams.net" modified="2023-05-31T18:30:00.985Z" agent="Mozilla/5.0 (Windows NT 10.0; Win64; x64) AppleWebKit/537.36 (KHTML, like Gecko) Chrome/113.0.0.0 Safari/537.36" etag="lxzN18PiknPl0JIrjEz9" version="21.3.6" type="github">
  <diagram name="PÃ¡gina-1" id="TV4AakHOSTzpoMoIq7GN">
    <mxGraphModel dx="880" dy="465" grid="1" gridSize="10" guides="1" tooltips="1" connect="1" arrows="1" fold="1" page="1" pageScale="1" pageWidth="827" pageHeight="1169" math="0" shadow="0">
      <root>
        <mxCell id="0" />
        <mxCell id="1" parent="0" />
        <mxCell id="4o38gGSABj1w3CJTn9y1-9" style="edgeStyle=orthogonalEdgeStyle;rounded=0;orthogonalLoop=1;jettySize=auto;html=1;exitX=0.5;exitY=1;exitDx=0;exitDy=0;" parent="1" source="4o38gGSABj1w3CJTn9y1-1" target="4o38gGSABj1w3CJTn9y1-5" edge="1">
          <mxGeometry relative="1" as="geometry" />
        </mxCell>
        <mxCell id="4o38gGSABj1w3CJTn9y1-14" value="" style="edgeStyle=orthogonalEdgeStyle;rounded=0;orthogonalLoop=1;jettySize=auto;html=1;" parent="1" source="4o38gGSABj1w3CJTn9y1-1" target="4o38gGSABj1w3CJTn9y1-6" edge="1">
          <mxGeometry relative="1" as="geometry" />
        </mxCell>
        <mxCell id="4o38gGSABj1w3CJTn9y1-1" value="PARSER" style="rounded=0;whiteSpace=wrap;html=1;" parent="1" vertex="1">
          <mxGeometry x="325" y="420" width="120" height="60" as="geometry" />
        </mxCell>
        <mxCell id="4o38gGSABj1w3CJTn9y1-7" style="edgeStyle=orthogonalEdgeStyle;rounded=0;orthogonalLoop=1;jettySize=auto;html=1;entryX=0.5;entryY=0;entryDx=0;entryDy=0;" parent="1" source="4o38gGSABj1w3CJTn9y1-3" target="4o38gGSABj1w3CJTn9y1-6" edge="1">
          <mxGeometry relative="1" as="geometry" />
        </mxCell>
        <mxCell id="4o38gGSABj1w3CJTn9y1-3" value="FILE" style="shape=manualInput;whiteSpace=wrap;html=1;" parent="1" vertex="1">
          <mxGeometry x="345" y="210" width="80" height="80" as="geometry" />
        </mxCell>
        <mxCell id="4o38gGSABj1w3CJTn9y1-13" style="edgeStyle=orthogonalEdgeStyle;rounded=0;orthogonalLoop=1;jettySize=auto;html=1;exitX=0.5;exitY=1;exitDx=0;exitDy=0;entryX=0.5;entryY=0;entryDx=0;entryDy=0;" parent="1" source="4o38gGSABj1w3CJTn9y1-5" target="4o38gGSABj1w3CJTn9y1-11" edge="1">
          <mxGeometry relative="1" as="geometry" />
        </mxCell>
        <mxCell id="4o38gGSABj1w3CJTn9y1-5" value="CONTENT VALIDATION" style="rounded=0;whiteSpace=wrap;html=1;" parent="1" vertex="1">
          <mxGeometry x="325" y="510" width="120" height="60" as="geometry" />
        </mxCell>
        <mxCell id="4o38gGSABj1w3CJTn9y1-8" style="edgeStyle=orthogonalEdgeStyle;rounded=0;orthogonalLoop=1;jettySize=auto;html=1;exitX=0.5;exitY=1;exitDx=0;exitDy=0;entryX=0.5;entryY=0;entryDx=0;entryDy=0;" parent="1" source="4o38gGSABj1w3CJTn9y1-6" target="4o38gGSABj1w3CJTn9y1-1" edge="1">
          <mxGeometry relative="1" as="geometry" />
        </mxCell>
        <mxCell id="4o38gGSABj1w3CJTn9y1-6" value="FILE NAME VALIDATION" style="rounded=0;whiteSpace=wrap;html=1;" parent="1" vertex="1">
          <mxGeometry x="310" y="320" width="150" height="60" as="geometry" />
        </mxCell>
        <mxCell id="4o38gGSABj1w3CJTn9y1-16" style="edgeStyle=orthogonalEdgeStyle;rounded=0;orthogonalLoop=1;jettySize=auto;html=1;exitX=0.5;exitY=1;exitDx=0;exitDy=0;entryX=0.5;entryY=0;entryDx=0;entryDy=0;" parent="1" source="4o38gGSABj1w3CJTn9y1-11" target="4o38gGSABj1w3CJTn9y1-15" edge="1">
          <mxGeometry relative="1" as="geometry" />
        </mxCell>
        <mxCell id="4o38gGSABj1w3CJTn9y1-11" value="OBJ.&lt;br&gt;DATA" style="shape=datastore;whiteSpace=wrap;html=1;" parent="1" vertex="1">
          <mxGeometry x="337.5" y="610" width="95" height="95" as="geometry" />
        </mxCell>
        <mxCell id="4o38gGSABj1w3CJTn9y1-18" style="edgeStyle=orthogonalEdgeStyle;rounded=0;orthogonalLoop=1;jettySize=auto;html=1;exitX=0.5;exitY=1;exitDx=0;exitDy=0;entryX=0.5;entryY=0;entryDx=0;entryDy=0;" parent="1" source="4o38gGSABj1w3CJTn9y1-15" target="4o38gGSABj1w3CJTn9y1-17" edge="1">
          <mxGeometry relative="1" as="geometry" />
        </mxCell>
        <mxCell id="4o38gGSABj1w3CJTn9y1-15" value="ENGINE" style="rounded=0;whiteSpace=wrap;html=1;" parent="1" vertex="1">
          <mxGeometry x="310" y="740" width="150" height="60" as="geometry" />
        </mxCell>
        <mxCell id="4o38gGSABj1w3CJTn9y1-24" style="edgeStyle=orthogonalEdgeStyle;rounded=0;orthogonalLoop=1;jettySize=auto;html=1;exitX=0.5;exitY=1;exitDx=0;exitDy=0;entryX=0.5;entryY=0;entryDx=0;entryDy=0;entryPerimeter=0;" parent="1" source="4o38gGSABj1w3CJTn9y1-17" target="4o38gGSABj1w3CJTn9y1-23" edge="1">
          <mxGeometry relative="1" as="geometry" />
        </mxCell>
        <mxCell id="4o38gGSABj1w3CJTn9y1-17" value="RENDER" style="rounded=0;whiteSpace=wrap;html=1;" parent="1" vertex="1">
          <mxGeometry x="310" y="840" width="150" height="60" as="geometry" />
        </mxCell>
        <mxCell id="4o38gGSABj1w3CJTn9y1-22" style="edgeStyle=orthogonalEdgeStyle;rounded=0;orthogonalLoop=1;jettySize=auto;html=1;exitX=0.5;exitY=1;exitDx=0;exitDy=0;exitPerimeter=0;entryX=0.484;entryY=0.119;entryDx=0;entryDy=0;entryPerimeter=0;" parent="1" source="4o38gGSABj1w3CJTn9y1-21" target="4o38gGSABj1w3CJTn9y1-3" edge="1">
          <mxGeometry relative="1" as="geometry" />
        </mxCell>
        <mxCell id="4o38gGSABj1w3CJTn9y1-21" value="START" style="strokeWidth=2;html=1;shape=mxgraph.flowchart.terminator;whiteSpace=wrap;" parent="1" vertex="1">
          <mxGeometry x="332.5" y="90" width="105" height="60" as="geometry" />
        </mxCell>
        <mxCell id="4o38gGSABj1w3CJTn9y1-23" value="END" style="strokeWidth=2;html=1;shape=mxgraph.flowchart.terminator;whiteSpace=wrap;" parent="1" vertex="1">
          <mxGeometry x="332.5" y="950" width="105" height="60" as="geometry" />
        </mxCell>
      </root>
    </mxGraphModel>
  </diagram>
</mxfile>
